<svg width="64" height="64" xmlns="http://www.w3.org/2000/svg">

 <g>
  <title>background</title>
  <rect fill="none" id="canvas_background" height="402" width="582" y="-1" x="-1"/>
 </g>
 <g>
  <title>Layer 1</title>
  <g id="svg_1">
   <g id="Icon-Retweet">
    <path fill="#000000" id="Fill-160" d="m48.5,44.7l-2.5,0l0,-22.8c0,-0.7 -0.6,-1.3 -1.3,-1.3l-21.5,0l0,-2.5l21.5,0c2.1,0 3.8,1.7 3.8,3.8l0,22.8" class="st0"/>
    <polyline fill="#000000" points="47.19999694824219,46.5 38.69999694824219,36.600006103515625 40.5,35 47.19999694824219,42.899993896484375 53.900001525878906,35 55.69999694824219,36.600006103515625 47.19999694824219,46.5 " id="Fill-161" class="st0"/>
    <path fill="#000000" id="Fill-162" d="m40.9,45.9l-21.5,0c-2.1,0 -3.8,-1.7 -3.8,-3.8l0,-22.8l2.5,0l0,22.8c0,0.7 0.6,1.3 1.3,1.3l21.5,0l0,2.5" class="st0"/>
    <polyline fill="#000000" points="23.5,29 16.800003051757812,21.100006103515625 10.100006103515625,29 8.300003051757812,27.399993896484375 16.800003051757812,17.5 25.300003051757812,27.399993896484375 23.5,29 " id="Fill-163" class="st0"/>
   </g>
  </g>
 </g>
</svg>